# AST/ASF file generated using VICON BodyLanguage
# -----------------------------------------------
:version 1.10
:name VICON
:units
  mass 1.0
  length 0.45
  angle deg
:documentation
   .ast/.asf automatically generated from VICON data using
   VICON BodyBuilder and BodyLanguage model FoxedUp or BRILLIANT.MOD
:root
   order TX TY TZ RX RY RZ
   axis XYZ
   position 0 0 0  
   orientation 0 0 0 
:bonedata
  begin
     id 1 
     name lhipjoint
     direction 0.561145 -0.797705 0.220866 
     length 2.46425 
     axis 0 0 0  XYZ
  end
  begin
     id 2 
     name lfemur
     direction 0.34202 -0.939693 0  
     length 7.95556  
     axis 0 0 20  XYZ
    dof rx ry rz
    limits (-160.0 20.0)
           (-70.0 70.0)
           (-60.0 70.0)
  end
  begin
     id 3 
     name ltibia
     direction 0.34202 -0.939693 0   
     length 7.9832   
     axis 0 0 20   XYZ
    dof rx
    limits (-10.0 170.0)
  end
  begin
     id 4 
     name lfoot
     direction 0.0723927 -0.198897 0.977343   
     length 2.23085   
     axis -90 7.62852e-016 20   XYZ
    dof rx rz
    limits (-45.0 90.0)
           (-70.0 20.0)
  end
  begin
     id 5 
     name ltoes
     direction 1.53826e-011 -4.21988e-011 1   
     length 1.12127   
     axis -90 7.62852e-016 20   XYZ
    dof rx
    limits (-90.0 20.0)
  end
  begin
     id 6 
     name rhipjoint
     direction -0.610499 -0.763299 0.21134   
     length 2.57533  
     axis 0 0 0  XYZ 
  end
  begin
     id 7 
     name rfemur
     direction -0.34202 -0.939693 0   
     length 8.65257   
     axis 0 0 -20   XYZ
    dof rx ry rz
    limits (-160.0 20.0)
           (-70.0 70.0)
           (-70.0 60.0)
  end
  begin
     id 8 
     name rtibia
     direction -0.342021 -0.939692 0   
     length 7.37807   
     axis 0 0 -20   XYZ
    dof rx
    limits (-10.0 170.0)
 end
 begin
     id 9 
     name rfoot
     direction -0.0239304 -0.0543852 0.998233   
     length 1.87018  
     axis -90 -7.62852e-016 -20   XYZ
    dof rx rz
    limits (-45.0 90.0)
           (-20.0 70.0)
  end
  begin
     id 10 
     name rtoes
     direction -1.53584e-011 -4.2242e-011 1   
     length 0.951568   
     axis -90 -7.62852e-016 -20   XYZ
    dof rx
    limits (-90.0 20.0)
  end
  begin
     id 11 
     name lowerback
     direction 0.00322089 0.999033 0.0438587   
     length 2.07568   
     axis 0 0 0   XYZ
    dof rx ry rz
    limits (-20.0 45.0)
           (-30.0 30.0)
           (-30.0 30.0)
  end
  begin
     id 12 
     name upperback
     direction -0.00321932 0.999732 -0.0229403   
     length 2.06253   
     axis 0 0 0   XYZ
    dof rx ry rz
    limits (-20.0 45.0)
           (-30.0 30.0)
           (-30.0 30.0)
  end
  begin
     id 13 
     name thorax
     direction -0.00537537 0.998955 -0.0453918   
     length 2.06975   
     axis 0 0 0   XYZ
    dof rx ry rz
    limits (-20.0 45.0)
           (-30.0 30.0)
           (-30.0 30.0)
  end
  begin
     id 14 
     name lowerneck
     direction -0.00013604 0.994111 0.108363   
     length 1.50836   
     axis 0 0 0   XYZ
    dof rx ry rz
    limits (-20.0 45.0)
           (-30.0 30.0)
           (-30.0 30.0)
  end
  begin
     id 15 
     name upperneck
     direction 0.0397262 0.983859 -0.174482   
     length 1.53037   
     axis 0 0 0   XYZ
    dof rx ry rz
    limits (-20.0 45.0)
           (-30.0 30.0)
           (-30.0 30.0)
  end
  begin
     id 16
     name head
     direction 0.0109991 0.997082 -0.0755378  
     length 1.56928  
     axis 0 0 0   XYZ
    dof rx ry rz
    limits (-20.0 45.0)
           (-30.0 30.0)
           (-30.0 30.0)
  end
  begin
     id 17 
     name lclavicle
     direction 0.964749 0.254 -0.068874  
     length 3.26503  
     axis 0 0 0   XYZ
    dof ry rz
    limits (-20.0 10.0)
           (0.0 20.0)
  end
  begin
     id 18 
     name lhumerus
     direction 1 -4.48941e-011 -2.05079e-027   
     length 5.68236   
     axis 180 -30 -90   XYZ
    dof rx ry rz
    limits (-60.0 90.0)
           (-90.0 90.0)
           (-90.0 90.0)
  end
  begin
     id 19
     name lradius
     direction 1 -4.48956e-011 6.2882e-027   
     length 3.17112   
     axis 180 -30 -90   XYZ
    dof rx
    limits (-10.0 170.0)
  end
  begin
     id 20
     name lwrist
     direction 1 -4.49014e-011 1.73219e-026   
     length 1.58556   
     axis -1.04724e-014 90 90   XYZ
    dof ry
    limits (-180.0 0.0)
 end
  begin
     id 21 
     name lhand
     direction 1 -4.49312e-011 3.46438e-026   
     length 0.632691   
     axis -2.21057e-014 90 90   XYZ
    dof rx rz
    limits (-90.0 90.0)
           (-45.0 45.0)
  end
  begin
     id 22 
     name lfingers
     direction 1 -4.48894e-011 6.92876e-026   
     length 0.510091   
     axis -4.42114e-014 90 90   XYZ
    dof rx
    limits (0.0 90.0)
  end
  begin
     id 23
     name lthumb
     direction 0.707107 -6.34705e-011 0.707107   
     length 0.732392   
     axis -90 45 2.85299e-015   XYZ
    dof rx rz
    limits (-45.0 45.0)
           (-45.0 45.0)
  end
  begin
     id 24 
     name rclavicle
     direction -0.954374 0.280496 -0.102435   
     length 3.25419  
     axis 0 0 0   XYZ 
    dof ry rz
    limits (-10.0 20.0)
           (-20.0 0.0)
  end
  begin
     id 25 
     name rhumerus
     direction -1 -4.48994e-011 -1.07204e-017  
     length 5.8712   
     axis 180 30 90   XYZ
    dof rx ry rz
    limits (-90.0 60.0)
           (-90.0 90.0)
           (-90.0 90.0)
  end
  begin
     id 26 
     name rradius
     direction -1 -4.48972e-011 5.89292e-027   
     length 3.37589   
     axis 180 30 90   XYZ
    dof rx
    limits (-10.0 170.0)
  end
  begin
     id 27 
     name rwrist
     direction -1 -4.48942e-011 1.73219e-026   
     length 1.68794   
     axis -1.04724e-014 -90 -90   XYZ
    dof ry
    limits (-180.0 0.0)
  end
  begin
     id 28
     name rhand
     direction -1 -4.48514e-011 3.46438e-026   
     length 0.603257   
     axis -2.21057e-014 -90 -90   XYZ
    dof rx rz
    limits (-90.0 90.0)
           (-45.0 45.0)
  end
  begin
     id 29
     name rfingers
     direction -1 -4.50028e-011 6.92876e-026   
     length 0.486362   
     axis -4.42114e-014 -90 -90   XYZ
    dof rx
    limits (0.0 90.0)
  end
  begin
     id 30
     name rthumb
     direction -0.707107 -6.34926e-011 0.707107   
     length 0.698321   
     axis -90 -45 -2.85299e-015   XYZ
    dof rx rz
    limits (-45.0 45.0)
           (-45.0 45.0)
  end
:hierarchy
  begin
    root lhipjoint rhipjoint lowerback
    lhipjoint lfemur
    lfemur ltibia
    ltibia lfoot
    lfoot ltoes
    rhipjoint rfemur
    rfemur rtibia
    rtibia rfoot
    rfoot rtoes
    lowerback upperback
    upperback thorax
    thorax lowerneck lclavicle rclavicle
    lowerneck upperneck
    upperneck head
    lclavicle lhumerus
    lhumerus lradius
    lradius lwrist
    lwrist lhand lthumb
    lhand lfingers
    rclavicle rhumerus
    rhumerus rradius
    rradius rwrist
    rwrist rhand rthumb
    rhand rfingers
  end

#!OML:ASF I:\Segmentation\Patient Classification 1\Patient 1\Session 1\Patient1.ASF
:FULLY-SPECIFIED
:DEGREES
4293
root 27.7008 18.1329 -6.56501 702.319 -445.063 -2131.75
lowerback -12.6063 2.24271 -3.66035
upperback 1.33172 3.53524 0.184
thorax 8.27424 1.53773 2.94378
lowerneck -16.6335 -3.59024 -2.7341
upperneck 23.9947 -5.21607 2.43597
head 10.5915 -2.44115 0.581536
rclavicle -2.12203e-014 -1.03368e-014
rhumerus -23.2453 16.5908 -83.9364
rradius 104.169
rwrist -24.016
rhand -15.9951 20.809
rfingers 7.12502
rthumb 10.2049 -8.92344
lclavicle -2.12203e-014 -1.03368e-014
lhumerus -44.0993 -23.4923 95.2932
lradius 115.668
lwrist 32.6933
lhand -12.8933 38.2606
lfingers 7.12502
lthumb 13.196 67.823
rfemur -20.8927 5.1159 17.2753
rtibia 37.8149
rfoot -21.508 -9.0752
rtoes -44.5026
lfemur -31.3595 -8.93552 -14.1113
ltibia 36.5231
lfoot -17.6306 8.05324
ltoes -16.7191
4294
root 27.7017 18.1324 -6.56659 701.72 -445.234 -2131.16
lowerback -12.6302 2.11815 -3.62892
upperback 1.27739 3.35231 0.319115
thorax 8.23573 1.44884 3.03546
lowerneck -16.4622 -3.39376 -2.78151
upperneck 23.927 -4.89319 2.30526
head 10.5215 -2.31704 0.592075
rclavicle 4.98453e-014 8.74653e-015
rhumerus -24.3873 16.8184 -84.4049
rradius 104.422
rwrist -24.8735
rhand -15.9858 20.5948
rfingers 7.12502
rthumb 10.2138 -9.13723
lclavicle 4.98453e-014 8.74653e-015
lhumerus -44.0061 -23.313 95.3623
lradius 115.843
lwrist 32.1386
lhand -13.0145 38.2611
lfingers 7.12502
lthumb 13.0792 67.831
rfemur -20.9251 5.2691 17.2867
rtibia 37.8249
rfoot -21.4789 -9.05705
rtoes -44.5368
lfemur -31.3226 -8.87345 -14.072
ltibia 36.5156
lfoot -17.7006 8.10959
ltoes -16.5622
4295
root 27.7043 18.1311 -6.56822 699.968 -445.462 -2129.4
lowerback -12.6321 2.03904 -3.64174
upperback 1.16511 3.2371 0.415338
thorax 8.11744 1.39461 3.12006
lowerneck -16.2788 -3.21888 -2.78381
upperneck 23.9639 -4.61353 2.1409
head 10.4871 -2.21336 0.575936
rclavicle -5.07895e-014 1.31198e-014
rhumerus -25.6358 16.9735 -84.9326
rradius 104.623
rwrist -25.7591
rhand -16.3504 20.6974
rfingers 7.12502
rthumb 9.86212 -9.05161
lclavicle -5.07895e-014 1.31198e-014
lhumerus -44.0344 -23.1824 95.429
lradius 116.077
lwrist 31.6182
lhand -12.9837 38.6435
lfingers 7.12502
lthumb 13.1089 68.2115
rfemur -21.0067 5.459 17.2217
rtibia 37.8408
rfoot -21.381 -9.04256
rtoes -44.6449
lfemur -31.3001 -8.71983 -14.1106
ltibia 36.5067
lfoot -17.7432 8.13803
ltoes -16.5052
4296
root 27.7067 18.1328 -6.56803 697.605 -445.598 -2127.07
lowerback -12.6132 1.96755 -3.63498
upperback 1.12803 3.13826 0.421322
thorax 8.07407 1.34844 3.1021
lowerneck -16.2197 -3.08794 -2.74319
upperneck 23.9651 -4.42295 2.06319
head 10.4676 -2.13341 0.569015
rclavicle -7.50412e-015 -5.96354e-015
rhumerus -26.7119 16.9407 -85.4311
rradius 104.8
rwrist -26.6192
rhand -16.7758 20.7553
rfingers 7.12502
rthumb 9.45169 -9.0128
lclavicle -7.50412e-015 -5.96354e-015
lhumerus -43.8699 -23.1399 95.3651
lradius 116.233
lwrist 31.3168
lhand -12.8593 39.2004
lfingers 7.12502
lthumb 13.2288 68.7606
rfemur -21.0254 5.51696 17.104
rtibia 37.8664
rfoot -21.3516 -8.94156
rtoes -44.753
lfemur -31.2229 -8.60874 -14.2415
ltibia 36.501
lfoot -17.7846 8.24695
ltoes -16.7657
4297
root 27.7099 18.1347 -6.56573 696.055 -445.656 -2125.59
lowerback -12.5955 1.83881 -3.58129
upperback 1.15921 2.95635 0.451999
thorax 8.11245 1.26046 3.07099
lowerneck -16.2448 -2.95724 -2.78756
upperneck 23.9624 -4.2236 2.05579
head 10.4668 -2.04714 0.601212
rclavicle 3.66758e-014 1.98785e-015
rhumerus -27.5852 16.9658 -85.8691
rradius 104.939
rwrist -27.4574
rhand -17.1903 20.9604
rfingers 7.12502
rthumb 9.05167 -8.8254
lclavicle 3.66758e-014 1.98785e-015
lhumerus -43.553 -22.9997 95.2769
lradius 116.36
lwrist 31.1618
lhand -12.8981 39.4526
lfingers 7.12502
lthumb 13.1914 69.0153
rfemur -20.9681 5.35009 17.0395
rtibia 37.8853
rfoot -21.3623 -8.69436
rtoes -44.7715
lfemur -31.1011 -8.62172 -14.3357
ltibia 36.4966
lfoot -17.9087 8.34188
ltoes -16.7916
4298
root 27.7147 18.1322 -6.56436 695.721 -445.772 -2125.27
lowerback -12.6215 1.659 -3.48524
upperback 1.15356 2.69112 0.59363
thorax 8.13842 1.13193 3.11954
lowerneck -16.2274 -2.7875 -2.98986
upperneck 24.0216 -3.93631 2.06621
head 10.4818 -1.93435 0.678647
rclavicle 4.1546e-014 -1.31198e-014
rhumerus -28.4657 17.2272 -86.303
rradius 105.026
rwrist -28.2919
rhand -17.2764 21.0219
rfingers 7.12502
rthumb 8.96861 -8.76752
lclavicle 4.1546e-014 -1.31198e-014
lhumerus -43.3257 -22.7114 95.2704
lradius 116.549
lwrist 30.9714
lhand -13.134 39.3245
lfingers 7.12502
lthumb 12.9641 68.9018
rfemur -20.9694 5.26014 17.0872
rtibia 37.8954
rfoot -21.3304 -8.46178
rtoes -44.6584
lfemur -31.0567 -8.57098 -14.2985
ltibia 36.4936
lfoot -18.0052 8.31101
ltoes -16.4823
4299
root 27.7153 18.1297 -6.5675 695.895 -445.701 -2125.53
lowerback -12.6113 1.43433 -3.49554
upperback 1.17565 2.38407 0.708954
thorax 8.17454 0.978517 3.19116
lowerneck -16.3011 -2.63239 -3.09482
upperneck 24.1286 -3.67814 2.01474
head 10.5287 -1.83253 0.712503
rclavicle -2.52457e-014 -8.34896e-015
rhumerus -29.3529 17.3687 -86.767
rradius 105.092
rwrist -29.156
rhand -17.0903 20.7545
rfingers 7.12502
rthumb 9.14823 -9.02712
lclavicle -2.52457e-014 -8.34896e-015
lhumerus -43.0704 -22.5909 95.2333
lradius 116.727
lwrist 30.8403
lhand -13.326 39.3138
lfingers 7.12502
lthumb 12.779 68.9027
rfemur -20.866 5.43635 17.0925
rtibia 37.9186
rfoot -21.4512 -8.60796
rtoes -44.5898
lfemur -30.987 -8.48238 -14.3396
ltibia 36.5058
lfoot -17.9242 8.15032
ltoes -16.5569
4300
root 27.7141 18.1305 -6.57321 693.673 -445.826 -2123.29
lowerback -12.6817 1.36105 -3.48782
upperback 1.16616 2.28962 0.681091
thorax 8.21338 0.932616 3.14182
lowerneck -16.4877 -2.52958 -2.93955
upperneck 24.3294 -3.54632 1.88704
head 10.6287 -1.77328 0.656265
rclavicle -3.13086e-014 -1.11319e-014
rhumerus -30.3064 17.1336 -87.3493
rradius 105.15
rwrist -29.8335
rhand -16.9802 20.5536
rfingers 7.12502
rthumb 9.2544 -9.22326
lclavicle -3.13086e-014 -1.11319e-014
lhumerus -42.8054 -22.7457 95.0736
lradius 116.844
lwrist 30.7422
lhand -13.5228 39.3836
lfingers 7.12502
lthumb 12.5892 68.9843
rfemur -20.9149 5.75609 16.9993
rtibia 37.9468
rfoot -21.5071 -8.74595
rtoes -44.6587
lfemur -30.9365 -8.34298 -14.416
ltibia 36.4717
lfoot -17.9261 8.22019
ltoes -16.7657
4301
root 27.723 18.1317 -6.57786 683.534 -446.869 -2112.58
lowerback -13.2466 1.60842 -3.28921
upperback 0.988994 2.59925 0.698673
thorax 8.32746 1.08825 3.12659
lowerneck -16.6018 -2.39836 -2.88658
upperneck 24.5006 -3.34695 1.75874
head 10.7047 -1.69389 0.627502
rclavicle 1.56046e-014 -1.19271e-015
rhumerus -31.2251 16.9783 -87.8188
rradius 105.199
rwrist -30.4267
rhand -16.8122 20.4813
rfingers 7.12502
rthumb 9.41654 -9.28838
lclavicle 1.56046e-014 -1.19271e-015
lhumerus -42.5818 -22.7201 94.9312
lradius 116.913
lwrist 30.4357
lhand -13.6874 39.2309
lfingers 7.12502
lthumb 12.4305 68.8413
rfemur -21.8326 6.23581 16.9052
rtibia 37.9895
rfoot -20.9872 -8.28531
rtoes -44.7114
lfemur -31.3752 -7.74631 -14.2345
ltibia 36.4871
lfoot -18.267 8.78186
ltoes -16.3929
4302
root 27.7189 18.1327 -6.56703 689.139 -446.068 -2118.91
lowerback -12.6339 1.11896 -3.35789
upperback 1.17875 1.93608 0.794227
thorax 8.2269 0.763784 3.12081
lowerneck -16.5348 -2.23107 -2.95936
upperneck 24.4782 -3.04745 1.59291
head 10.6739 -1.58569 0.623342
rclavicle -2.73329e-015 -3.57812e-015
rhumerus -32.0821 17.0819 -88.1219
rradius 105.305
rwrist -31.3608
rhand -16.6495 20.2386
rfingers 7.12502
rthumb 9.5735 -9.52389
lclavicle -2.73329e-015 -3.57812e-015
lhumerus -42.4202 -22.4955 94.9296
lradius 116.992
lwrist 29.8838
lhand -13.701 39.038
lfingers 7.12502
lthumb 12.4174 68.6491
rfemur -20.8519 5.90256 16.8068
rtibia 38.0126
rfoot -21.362 -8.66493
rtoes -44.7116
lfemur -30.716 -8.22195 -14.5939
ltibia 36.4596
lfoot -17.9325 8.4835
ltoes -16.4324
4303
root 27.7284 18.1331 -6.57628 675.4 -447.148 -2104.36
lowerback -13.4193 1.38208 -3.24783
upperback 0.90566 2.2785 0.874255
thorax 8.35392 0.929834 3.23307
lowerneck -16.4882 -2.09516 -2.9163
upperneck 24.4901 -2.82806 1.43133
head 10.6602 -1.50288 0.589386
rclavicle 6.26172e-015 -9.54166e-015
rhumerus -33.0933 17.0834 -88.5617
rradius 105.493
rwrist -32.3982
rhand -16.8601 19.9519
rfingers 7.12502
rthumb 9.37035 -9.81986
lclavicle 6.26172e-015 -9.54166e-015
lhumerus -42.3391 -22.4595 94.9811
lradius 117.103
lwrist 29.3067
lhand -13.9789 38.9156
lfingers 7.12502
lthumb 12.1495 68.5428
rfemur -22.0806 6.41763 16.736
rtibia 38.0481
rfoot -20.7209 -8.0547
rtoes -44.7345
lfemur -31.3987 -7.60289 -14.3053
ltibia 36.481
lfoot -18.3986 9.05503
ltoes -15.9244
4304
root 27.7244 18.1318 -6.5777 680.223 -446.773 -2109.82
lowerback -12.8426 1.11407 -3.24122
upperback 1.04439 1.90629 0.886541
thorax 8.20333 0.753555 3.15182
lowerneck -16.6102 -1.98687 -2.76687
upperneck 24.6707 -2.6941 1.32635
head 10.7431 -1.44231 0.5435
rclavicle 9.69075e-015 -9.54166e-015
rhumerus -34.1195 16.8688 -89.1086
rradius 105.694
rwrist -33.3868
rhand -17.023 19.6133
rfingers 7.12502
rthumb 9.21315 -10.1654
lclavicle 9.69075e-015 -9.54166e-015
lhumerus -42.2413 -22.6341 94.9574
lradius 117.261
lwrist 28.8973
lhand -14.3698 38.8549
lfingers 7.12502
lthumb 11.7725 68.504
rfemur -21.2685 6.43828 16.7895
rtibia 38.0685
rfoot -21.1138 -8.33181
rtoes -44.8238
lfemur -30.7522 -8.03997 -14.4264
ltibia 36.4531
lfoot -18.4021 8.9753
ltoes -16.2128
4305
root 27.7259 18.1299 -6.58273 681.045 -446.758 -2110.74
lowerback -12.754 0.978007 -3.1716
upperback 1.01149 1.70637 0.937175
thorax 8.13266 0.660599 3.1245
lowerneck -16.5582 -1.855 -2.68706
upperneck 24.706 -2.51705 1.25649
head 10.7396 -1.36463 0.530163
rclavicle -8.84592e-015 -7.95139e-016
rhumerus -35.0141 16.7263 -89.6064
rradius 105.846
rwrist -34.5706
rhand -16.8623 19.0168
rfingers 7.12502
rthumb 9.36819 -10.755
lclavicle -8.84592e-015 -7.95139e-016
lhumerus -42.1231 -22.8104 94.8564
lradius 117.497
lwrist 28.5653
lhand -14.3745 38.8623
lfingers 7.12502
lthumb 11.768 68.5117
rfemur -21.1867 6.527 16.8761
rtibia 38.1028
rfoot -21.2198 -8.44007
rtoes -44.7871
lfemur -30.6923 -8.14385 -14.3469
ltibia 36.4782
lfoot -18.4673 8.99383
ltoes -16.1859
4306
root 27.728 18.1293 -6.58593 678.298 -446.942 -2107.94
lowerback -12.8168 0.899033 -3.14964
upperback 0.94943 1.5865 1.07145
thorax 8.1073 0.601004 3.23331
lowerneck -16.4234 -1.72147 -2.76843
upperneck 24.6544 -2.28071 1.1484
head 10.6888 -1.27941 0.539459
rclavicle 1.09829e-014 7.95139e-015
rhumerus -35.9148 16.7493 -89.9341
rradius 105.991
rwrist -35.7893
rhand -16.9909 18.5956
rfingers 7.12502
rthumb 9.2441 -11.1818
lclavicle 1.09829e-014 7.95139e-015
lhumerus -41.8611 -22.8808 94.8534
lradius 117.61
lwrist 28.0988
lhand -14.3248 38.5255
lfingers 7.12502
lthumb 11.8159 68.1722
rfemur -21.324 6.62804 16.8954
rtibia 38.1363
rfoot -21.0343 -8.4173
rtoes -44.6282
lfemur -30.7202 -7.9515 -14.3009
ltibia 36.4797
lfoot -18.538 8.98422
ltoes -16.0229
